<svg width="45" height="45" viewBox="0 0 45 45" fill="none" xmlns="http://www.w3.org/2000/svg">
<path d="M22.5 0C10.0748 0 0 10.0748 0 22.5C0 34.9252 10.0748 45 22.5 45C34.9252 45 45 34.9252 45 22.5C45 10.0748 34.9252 0 22.5 0ZM22.5 41.183C12.1842 41.183 3.81696 32.8158 3.81696 22.5C3.81696 12.1842 12.1842 3.81696 22.5 3.81696C32.8158 3.81696 41.183 12.1842 41.183 22.5C41.183 32.8158 32.8158 41.183 22.5 41.183Z" fill="#015C89"/>
<path d="M32.9159 21.8521L18.0448 11.0541C17.9256 10.9667 17.7844 10.9141 17.637 10.9022C17.4896 10.8903 17.3417 10.9196 17.21 10.9868C17.0783 11.0539 16.9677 11.1564 16.8908 11.2827C16.8139 11.4089 16.7735 11.5541 16.7742 11.702V33.298C16.7742 33.9559 17.5175 34.3276 18.0448 33.9459L32.9159 23.1479C33.0186 23.0739 33.1022 22.9766 33.1599 22.8639C33.2176 22.7513 33.2477 22.6265 33.2477 22.5C33.2477 22.3734 33.2176 22.2487 33.1599 22.1361C33.1022 22.0234 33.0186 21.9261 32.9159 21.8521ZM19.9784 28.582V16.418L28.3506 22.5L19.9784 28.582Z" fill="#015C89"/>
</svg>
