<svg width="270" height="35" viewBox="0 0 270 35" fill="none" xmlns="http://www.w3.org/2000/svg">
<g opacity="0.8">
<rect x="165.173" width="2.10346" height="34.0752" fill="#015C89"/>
<rect width="2.10346" height="30.1735" transform="matrix(-1 0 0 1 192.518 2.08099)" fill="#015C89"/>
<rect width="2.10346" height="30.1735" transform="matrix(-1 0 0 1 135.725 1.95093)" fill="#015C89"/>
<rect x="196.724" y="5.59247" width="2.10346" height="25.3613" fill="#015C89"/>
<rect x="139.93" y="5.4624" width="2.10346" height="25.3613" fill="#015C89"/>
<rect x="171.483" y="10.2746" width="2.10346" height="15.9971" fill="#015C89"/>
<rect width="2.10346" height="15.9971" transform="matrix(-1 0 0 1 186.207 10.2746)" fill="#015C89"/>
<rect width="2.10346" height="15.9971" transform="matrix(-1 0 0 1 129.414 10.1445)" fill="#015C89"/>
<rect width="2.10346" height="10.5347" transform="matrix(-1 0 0 1 160.966 12.3555)" fill="#015C89"/>
<rect width="2.10346" height="10.5347" transform="matrix(-1 0 0 1 205.139 12.4856)" fill="#015C89"/>
<rect width="2.10346" height="10.5347" transform="matrix(-1 0 0 1 148.345 12.3555)" fill="#015C89"/>
<rect width="2.10346" height="5.85261" transform="matrix(-1 0 0 1 179.897 14.8267)" fill="#015C89"/>
<rect width="2.10346" height="5.85261" transform="matrix(-1 0 0 1 123.103 14.6966)" fill="#015C89"/>
<rect width="2.10346" height="3.77169" transform="matrix(-1 0 0 1 154.655 15.737)" fill="#015C89"/>
</g>
<g opacity="0.8">
<rect x="255.173" width="2.10346" height="34.0752" fill="#015C89"/>
<rect width="2.10346" height="30.1735" transform="matrix(-1 0 0 1 225.725 1.95093)" fill="#015C89"/>
<rect x="229.93" y="5.4624" width="2.10346" height="25.3613" fill="#015C89"/>
<rect x="261.483" y="10.2746" width="2.10346" height="15.9971" fill="#015C89"/>
<rect width="2.10346" height="15.9971" transform="matrix(-1 0 0 1 219.414 10.1445)" fill="#015C89"/>
<rect width="2.10346" height="10.5347" transform="matrix(-1 0 0 1 250.966 12.3555)" fill="#015C89"/>
<rect width="2.10346" height="10.5347" transform="matrix(-1 0 0 1 238.345 12.3555)" fill="#015C89"/>
<rect width="2.10346" height="5.85261" transform="matrix(-1 0 0 1 269.897 14.8267)" fill="#015C89"/>
<rect width="2.10346" height="5.85261" transform="matrix(-1 0 0 1 213.103 14.6966)" fill="#015C89"/>
<rect width="2.10346" height="3.77169" transform="matrix(-1 0 0 1 244.655 15.737)" fill="#015C89"/>
</g>
<g opacity="0.8">
<rect x="107.277" width="2.10346" height="34.0752" fill="#015C89"/>
<rect x="44.1728" width="2.10346" height="34.0752" fill="#015C89"/>
<rect width="2.10346" height="30.1735" transform="matrix(-1 0 0 1 71.5183 2.08099)" fill="#015C89"/>
<rect width="2.10346" height="30.1735" transform="matrix(-1 0 0 1 14.7252 1.95093)" fill="#015C89"/>
<rect width="2.10346" height="25.3613" transform="matrix(-1 0 0 1 103.069 5.59247)" fill="#015C89"/>
<rect x="75.7245" y="5.59247" width="2.10346" height="25.3613" fill="#015C89"/>
<rect x="18.9303" y="5.4624" width="2.10346" height="25.3613" fill="#015C89"/>
<rect x="113.588" y="10.2746" width="2.10346" height="15.9971" fill="#015C89"/>
<rect x="50.4831" y="10.2746" width="2.10346" height="15.9971" fill="#015C89"/>
<rect width="2.10346" height="15.9971" transform="matrix(-1 0 0 1 65.2069 10.2746)" fill="#015C89"/>
<rect width="2.10346" height="15.9971" transform="matrix(-1 0 0 1 8.4138 10.1445)" fill="#015C89"/>
<rect width="2.10346" height="10.5347" transform="matrix(-1 0 0 1 96.7597 12.4856)" fill="#015C89"/>
<rect width="2.10346" height="10.5347" transform="matrix(-1 0 0 1 39.9655 12.3555)" fill="#015C89"/>
<rect width="2.10346" height="10.5347" transform="matrix(-1 0 0 1 84.139 12.4856)" fill="#015C89"/>
<rect width="2.10346" height="10.5347" transform="matrix(-1 0 0 1 27.3448 12.3555)" fill="#015C89"/>
<rect x="119.897" y="14.8267" width="2.10346" height="5.85261" fill="#015C89"/>
<rect width="2.10346" height="5.85261" transform="matrix(-1 0 0 1 58.8966 14.8267)" fill="#015C89"/>
<rect width="2.10346" height="5.85261" transform="matrix(-1 0 0 1 2.10346 14.6966)" fill="#015C89"/>
<rect width="2.10346" height="3.77169" transform="matrix(-1 0 0 1 90.4493 15.8671)" fill="#015C89"/>
<rect width="2.10346" height="3.77169" transform="matrix(-1 0 0 1 33.6552 15.737)" fill="#015C89"/>
</g>
</svg>
